<?xml version="1.0" encoding="UTF-8"?> <svg xmlns="http://www.w3.org/2000/svg" width="179" height="94" viewBox="0 0 179 94" fill="none"><path d="M0 74.7285H178.542" stroke="#C0A479" stroke-width="2.49" stroke-miterlimit="10"></path><path d="M43.1891 89.6576C42.6199 89.3602 42.1518 88.8973 41.8451 88.3285C41.5328 87.7253 41.3765 87.0521 41.3905 86.3714C41.3919 86.0287 41.421 85.6867 41.4775 85.3488C41.632 84.4645 41.9988 83.6319 42.5457 82.9244C43.0866 82.2226 43.779 81.6551 44.5699 81.2654C45.3609 80.8756 46.2295 80.674 47.1093 80.6758C47.51 80.6749 47.9096 80.7162 48.3018 80.7989C48.6267 80.8584 48.9403 80.9695 49.2309 81.128C49.278 81.1523 49.3143 81.1935 49.3328 81.2436C49.3433 81.3169 49.3433 81.3914 49.3328 81.4647L49.1316 83.3188C49.1316 83.349 49.0918 83.364 49.0446 83.364C48.9974 83.364 48.9726 83.349 48.9726 83.3188C48.8826 82.679 48.5917 82.0854 48.1428 81.6255C47.6957 81.215 47.1065 80.9993 46.5032 81.025C46.0638 81.0147 45.6272 81.0989 45.2225 81.2722C44.8178 81.4454 44.4541 81.7038 44.1555 82.03C43.5245 82.7083 43.1105 83.6295 42.9134 84.7936C42.8463 85.2182 42.8131 85.6475 42.814 86.0774C42.814 87.2381 43.0782 88.1543 43.6065 88.826C43.8634 89.1547 44.1936 89.4172 44.5702 89.5919C44.9467 89.7666 45.3589 89.8485 45.7728 89.8309C46.0573 89.8432 46.3412 89.7935 46.605 89.6852C46.8265 89.5783 47.0028 89.3947 47.1019 89.1677C47.247 88.8311 47.3376 88.4731 47.3702 88.1074C47.4203 87.8329 47.4493 87.5549 47.4571 87.2758C47.4691 87.109 47.4282 86.9427 47.3404 86.801C47.2418 86.6881 47.1057 86.6157 46.9578 86.5975C46.6923 86.557 46.4238 86.5402 46.1554 86.5472C46.138 86.5472 46.1206 86.5472 46.1057 86.5096C46.091 86.4854 46.0832 86.4576 46.0832 86.4292C46.0832 86.4008 46.091 86.3729 46.1057 86.3488C46.1101 86.3389 46.117 86.3305 46.1258 86.3243C46.1345 86.3181 46.1447 86.3144 46.1554 86.3136C46.851 86.3613 47.4174 86.3839 47.8596 86.3839C48.3018 86.3839 48.7465 86.3839 49.2185 86.3412C49.2458 86.3412 49.2632 86.3764 49.2682 86.4442C49.2732 86.5121 49.2682 86.5472 49.2185 86.5472C49.1597 86.5368 49.0993 86.5397 49.0417 86.5558C48.9841 86.5719 48.9308 86.6007 48.8856 86.6402C48.7985 86.7612 48.7414 86.9017 48.7192 87.0497C48.6769 87.2507 48.6123 87.6502 48.5254 88.2557C48.4685 88.5517 48.432 88.8514 48.4161 89.1526C48.4191 89.2826 48.4065 89.4125 48.3788 89.5395C48.3774 89.5824 48.3626 89.6237 48.3366 89.6576C48.3028 89.6845 48.2639 89.7041 48.2223 89.7154C47.2783 89.9651 46.3086 90.1025 45.3331 90.1249C44.5899 90.1468 43.853 89.981 43.1891 89.6425" fill="#E3DCCA"></path><path d="M53.3469 89.2626C53.6411 88.8195 53.8338 88.3157 53.9109 87.7878C53.9799 87.4413 54.014 87.0886 54.0127 86.7351C54.0307 86.1815 53.9192 85.6315 53.6873 85.1297C53.4712 84.7001 53.173 84.4865 52.7979 84.4865C52.6194 84.4964 52.4458 84.5491 52.2916 84.6404C52.1373 84.7318 52.0069 84.859 51.911 85.0116C51.6067 85.462 51.411 85.9783 51.3396 86.519C51.2791 86.8617 51.2458 87.2087 51.2403 87.5567C51.2195 88.1126 51.3302 88.6656 51.5632 89.1696C51.6342 89.3516 51.7562 89.5087 51.9141 89.6216C52.0721 89.7345 52.2593 89.7984 52.4526 89.8053C52.634 89.7963 52.8105 89.7423 52.9665 89.6481C53.1224 89.5539 53.2531 89.4224 53.3469 89.2651V89.2626ZM50.5372 89.5666C50.1916 89.1122 50.0157 88.549 50.0404 87.9762C50.041 87.7009 50.0702 87.4264 50.1273 87.1572C50.2239 86.604 50.4328 86.077 50.7409 85.6096C51.0259 85.1688 51.4087 84.8015 51.8589 84.5368C52.2835 84.2839 52.7672 84.1504 53.26 84.1499C53.5299 84.1332 53.8001 84.1783 54.0505 84.2818C54.3008 84.3853 54.5248 84.5446 54.7058 84.7478C55.0549 85.1955 55.2315 85.7562 55.2027 86.3256C55.2017 86.6051 55.1726 86.8837 55.1157 87.1572C55.0174 87.742 54.7879 88.2964 54.445 88.7777C54.1426 89.2095 53.7477 89.5668 53.2898 89.8228C52.881 90.0534 52.4213 90.1761 51.9533 90.1796C51.6853 90.1954 51.4174 90.1484 51.1704 90.042C50.9234 89.9356 50.7042 89.7729 50.5298 89.5666" fill="#E3DCCA"></path><path d="M56.4024 89.9069C56.2882 89.7346 56.2348 89.5284 56.2508 89.3215C56.2577 89.1014 56.2818 88.8821 56.3229 88.6658L57.6818 81.2166C57.709 81.0767 57.724 80.9346 57.7265 80.792C57.7265 80.5207 57.6296 80.385 57.4383 80.385C57.2153 80.4107 56.9994 80.4798 56.8024 80.5885H56.7725C56.7328 80.5885 56.7104 80.5634 56.7005 80.5156C56.6906 80.4679 56.7005 80.4377 56.7427 80.4277L58.8519 79.375H58.8817C58.9217 79.3757 58.9599 79.3919 58.9885 79.4202C59.0233 79.4504 59.0357 79.473 59.0258 79.4931L57.3936 88.6658C57.3662 88.7904 57.3512 88.9175 57.3489 89.0452C57.3489 89.2964 57.4259 89.4095 57.5824 89.4095C57.7389 89.4095 58.0296 89.221 58.4047 88.8391C58.4196 88.823 58.44 88.8131 58.4619 88.8115C58.4773 88.8122 58.4923 88.8172 58.5051 88.8261C58.5178 88.835 58.5278 88.8474 58.5339 88.8618C58.5439 88.8766 58.548 88.8947 58.5452 88.9125C58.5425 88.9302 58.5331 88.9463 58.519 88.9572C58.2635 89.2762 57.9735 89.5652 57.6545 89.819C57.4358 89.9926 57.1672 90.0896 56.8893 90.0953C56.7977 90.1059 56.7048 90.0943 56.6185 90.0615C56.5321 90.0288 56.4547 89.9758 56.3924 89.9069" fill="#E3DCCA"></path><path d="M64.6379 79.5953C64.736 79.6506 64.8157 79.734 64.867 79.8351C64.9183 79.9361 64.9388 80.0503 64.9261 80.1631C64.907 80.3238 64.8268 80.4707 64.7025 80.5726C64.5824 80.6706 64.4319 80.7222 64.2777 80.7183C64.1948 80.7286 64.1107 80.7195 64.0318 80.6916C63.953 80.6637 63.8816 80.6178 63.8231 80.5575C63.7264 80.4172 63.6595 80.2581 63.6268 80.0902C63.6021 79.9712 63.5611 79.8562 63.5051 79.7485C63.4787 79.7077 63.4412 79.6756 63.3971 79.6559C63.353 79.6363 63.3042 79.6301 63.2567 79.638C62.9254 79.638 62.6439 79.9571 62.412 80.5952C62.1031 81.5574 61.8876 82.5478 61.7686 83.5523L61.6394 84.4442L62.2456 84.399C62.7275 84.3613 62.9908 84.3412 63.0405 84.3412C63.0582 84.3408 63.0756 84.3452 63.0909 84.3541C63.1062 84.3629 63.1189 84.3758 63.1275 84.3914C63.1452 84.4254 63.1496 84.4649 63.1399 84.502C63.0995 84.6229 63.0362 84.7346 62.9536 84.8311C62.8559 84.9517 62.7639 85.007 62.6778 84.9969C62.5569 84.9838 62.4366 84.9645 62.3176 84.9391C62.0708 84.8968 61.8221 84.8674 61.5723 84.8512L60.7798 90.2704C60.6845 91.025 60.5181 91.7687 60.283 92.4914C60.1558 92.9319 59.9108 93.3283 59.575 93.637C59.2668 93.8745 58.8865 93.9962 58.4993 93.9812C58.186 93.9992 57.8746 93.9222 57.6049 93.7601C57.512 93.7086 57.4377 93.6285 57.393 93.5313C57.3483 93.4341 57.3355 93.325 57.3565 93.2199C57.3635 93.1434 57.3855 93.0691 57.4214 93.0014C57.4572 92.9336 57.5061 92.8738 57.5652 92.8255C57.6821 92.7307 57.8277 92.6793 57.9776 92.6798C58.0592 92.6654 58.1431 92.6719 58.2217 92.6986C58.3002 92.7254 58.3709 92.7716 58.4272 92.833C58.5155 92.9697 58.5739 93.1239 58.5986 93.2853C58.6183 93.3918 58.6525 93.4949 58.7005 93.5918C58.7216 93.6264 58.7519 93.6544 58.7878 93.6726C58.8238 93.6908 58.8641 93.6985 58.9042 93.6948C59.0085 93.6948 59.0955 93.6194 59.1526 93.4687C59.2528 93.1946 59.3252 92.9109 59.3688 92.622C59.4458 92.2075 59.5526 91.5492 59.6868 90.6423L60.432 85.4868C60.4494 85.2733 60.4594 85.1477 60.4594 85.1075C60.4594 84.9215 60.4122 84.8085 60.3153 84.7633C60.1133 84.7067 59.9034 84.6846 59.6942 84.6979C59.6669 84.6979 59.652 84.6678 59.652 84.61C59.652 84.5522 59.6669 84.4944 59.6942 84.4944C59.9358 84.514 60.1781 84.4662 60.3948 84.3563C60.4715 84.2959 60.535 84.2201 60.5812 84.1336C60.6274 84.0471 60.6553 83.9518 60.6631 83.8538C60.7898 82.9127 61.0095 81.9869 61.3189 81.0902C61.4903 80.557 61.8145 80.0873 62.2505 79.741C62.6899 79.4596 63.2042 79.3219 63.7237 79.3466C64.0481 79.3276 64.3705 79.4091 64.6478 79.5802" fill="#E3DCCA"></path><path d="M86.5772 80.9247C86.5772 80.9825 86.5772 81.0126 86.5499 81.0126C86.3425 81.0034 86.135 81.0298 85.9363 81.0905C85.7972 81.1441 85.6835 81.2492 85.6183 81.3845C85.5283 81.5866 85.4672 81.8006 85.4369 82.0201L84.2643 88.7809C84.2393 88.9355 84.2252 89.0916 84.2221 89.2482C84.2114 89.3293 84.2218 89.4119 84.2523 89.4877C84.2828 89.5635 84.3323 89.6299 84.396 89.6804C84.5957 89.7695 84.8144 89.8067 85.032 89.7884C85.0593 89.7884 85.0742 89.8185 85.0742 89.8763C85.0742 89.9341 85.0593 89.9643 85.032 89.9643C84.7836 89.9643 84.5972 89.9643 84.4532 89.9492L83.4992 89.9341L82.59 89.9492C82.4243 89.9592 82.2032 89.9643 81.9266 89.9643C81.9068 89.9643 81.8968 89.9341 81.8968 89.8763C81.8968 89.8185 81.8968 89.7884 81.9266 89.7884C82.1411 89.7973 82.3556 89.7728 82.5626 89.7155C82.6958 89.6676 82.8048 89.5682 82.8657 89.4392C82.9518 89.2285 83.0094 89.0071 83.0371 88.7809L83.6309 85.4068H79.5442L78.953 88.7809C78.9157 89.0548 78.8958 89.2156 78.8958 89.2633C78.8849 89.3431 78.895 89.4244 78.9251 89.4989C78.9552 89.5735 79.0042 89.6387 79.0673 89.6879C79.2737 89.7716 79.4964 89.806 79.7181 89.7884C79.7479 89.7884 79.7604 89.8185 79.7604 89.8763C79.7604 89.9341 79.7479 89.9643 79.7181 89.9643C79.4474 89.9643 79.2362 89.9643 79.0822 89.9492L78.1307 89.9341L77.2339 89.9492C77.0798 89.9492 76.8687 89.9643 76.5979 89.9643C76.5706 89.9643 76.5557 89.9341 76.5557 89.8763C76.5557 89.8185 76.5706 89.7884 76.5979 89.7884C76.8099 89.7968 77.0218 89.7722 77.2264 89.7155C77.2953 89.6918 77.3589 89.6545 77.4135 89.6057C77.4681 89.557 77.5125 89.4978 77.5444 89.4316C77.6367 89.224 77.7026 89.0053 77.7407 88.7809L78.9232 82.0302C78.9513 81.8747 78.9712 81.7179 78.9828 81.5603C78.9914 81.4801 78.9792 81.399 78.9474 81.325C78.9156 81.251 78.8653 81.1866 78.8014 81.1383C78.5953 81.0436 78.3687 81.0038 78.1431 81.0227C78.1257 81.0227 78.1158 80.9925 78.1158 80.9348C78.1158 80.877 78.1158 80.8468 78.1431 80.8468L78.794 80.8619C79.1592 80.8795 79.4523 80.8895 79.6759 80.8895C79.8995 80.8895 80.215 80.8895 80.6001 80.8619L81.2634 80.8468C81.2832 80.8468 81.2932 80.8745 81.2932 80.9348C81.2932 80.9951 81.2932 81.0227 81.2634 81.0227C81.0505 81.0124 80.8375 81.0413 80.6348 81.1081C80.4973 81.1651 80.3863 81.2729 80.3243 81.4096C80.2372 81.6175 80.1747 81.8351 80.138 82.0578L79.6163 85.0375H83.6756L84.1948 82.0578C84.2225 81.8914 84.2416 81.7237 84.2519 81.5553C84.2609 81.476 84.2499 81.3958 84.22 81.3219C84.19 81.2481 84.142 81.1832 84.0805 81.1332C83.8874 81.0393 83.673 80.9994 83.4594 81.0177C83.4296 81.0177 83.4147 80.9875 83.4147 80.9297C83.4147 80.8719 83.4296 80.8418 83.4594 80.8418L84.0954 80.8569C84.4606 80.8745 84.7587 80.8845 84.9898 80.8845C85.2208 80.8845 85.5338 80.8845 85.899 80.8569L86.5499 80.8418C86.5673 80.8418 86.5772 80.8694 86.5772 80.9297" fill="#E3DCCA"></path><path d="M89.8111 89.2625C90.1052 88.8195 90.2979 88.3156 90.375 87.7877C90.4441 87.4412 90.4782 87.0885 90.4769 86.735C90.4949 86.1814 90.3834 85.6314 90.1514 85.1296C89.9345 84.6992 89.6388 84.4848 89.2646 84.4865C89.0857 84.4963 88.9118 84.549 88.7571 84.6403C88.6025 84.7316 88.4716 84.8589 88.3752 85.0115C88.0708 85.4619 87.8751 85.9782 87.8038 86.519C87.7432 86.8616 87.71 87.2086 87.7044 87.5566C87.6837 88.1126 87.7944 88.6655 88.0274 89.1695C88.246 89.595 88.5425 89.8068 88.9168 89.8052C89.0982 89.7964 89.2748 89.7425 89.4308 89.6483C89.5868 89.5541 89.7174 89.4224 89.8111 89.265V89.2625ZM86.9964 89.5665C86.6498 89.1126 86.4738 88.549 86.4995 87.9762C86.5002 87.7008 86.5293 87.4263 86.5865 87.1571C86.6841 86.6042 86.893 86.0774 87.2001 85.6095C87.4854 85.1681 87.8691 84.8006 88.3205 84.5367C88.7449 84.2832 89.2288 84.1496 89.7217 84.1498C89.9912 84.1333 90.261 84.1785 90.5109 84.2821C90.7608 84.3856 90.9844 84.5448 91.165 84.7477C91.5141 85.1955 91.6907 85.7561 91.6619 86.3255C91.6606 86.6048 91.6323 86.8834 91.5774 87.1571C91.4771 87.7418 91.2469 88.2959 90.9042 88.7776C90.6028 89.2104 90.2077 89.5678 89.749 89.8228C89.3411 90.0533 88.8822 90.176 88.4149 90.1795C88.1478 90.1946 87.8808 90.1471 87.6348 90.0408C87.3887 89.9344 87.1703 89.7721 86.9964 89.5665Z" fill="#E3DCCA"></path><path d="M96.4376 84.4716C96.4169 84.5944 96.3617 84.7087 96.2786 84.8007C96.1718 84.9414 96.0724 85.0117 95.9755 85.0117C95.9358 85.0117 95.7693 84.9891 95.4787 84.9389C95.1579 84.8889 94.8343 84.8595 94.5098 84.8509L93.8887 88.3683C93.8606 88.4885 93.8464 88.6116 93.8465 88.7351C93.8465 89.1924 94.0949 89.421 94.5918 89.421C95.07 89.3805 95.5195 89.1736 95.8637 88.8356H95.8762C95.8953 88.8355 95.9143 88.8395 95.9318 88.8473C95.9494 88.8551 95.9651 88.8665 95.978 88.8808C95.9847 88.886 95.9901 88.8926 95.9939 88.9003C95.9976 88.9079 95.9995 88.9163 95.9995 88.9248C95.9995 88.9333 95.9976 88.9417 95.9939 88.9493C95.9901 88.957 95.9847 88.9636 95.978 88.9688C95.6293 89.316 95.2387 89.6174 94.8154 89.8657C94.512 90.0392 94.1702 90.1326 93.8217 90.137C93.0896 90.137 92.7236 89.802 92.7236 89.1321C92.7246 88.9844 92.7396 88.8372 92.7684 88.6924L93.3447 85.4941C93.3708 85.3549 93.3858 85.2137 93.3894 85.072C93.3966 85.0177 93.3904 84.9624 93.3713 84.9112C93.3523 84.8599 93.3209 84.8141 93.2801 84.7781C93.147 84.7176 93.0007 84.6925 92.8553 84.7052C92.8255 84.7052 92.8106 84.6776 92.8106 84.6173C92.8106 84.557 92.8255 84.5017 92.8553 84.5017C93.2211 84.5108 93.5783 84.3889 93.8639 84.1575C94.1535 83.9166 94.3818 83.6091 94.5297 83.2606C94.5297 83.2405 94.5719 83.2305 94.6315 83.2305C94.6707 83.2307 94.7095 83.2383 94.7458 83.2531C94.7831 83.2681 94.798 83.2807 94.788 83.2882L94.5868 84.4565C94.8353 84.4565 95.0638 84.4364 95.265 84.4213L95.7991 84.3836C95.9813 84.36 96.1646 84.3457 96.3482 84.3409C96.4152 84.3409 96.45 84.3836 96.45 84.4716" fill="#E3DCCA"></path><path d="M100.009 85.045C100.013 84.9736 100.001 84.9024 99.973 84.8366C99.9455 84.7708 99.9034 84.7123 99.85 84.6656C99.7397 84.5758 99.6015 84.5286 99.4599 84.5324C99.2684 84.5422 99.0829 84.6028 98.9219 84.7082C98.761 84.8137 98.6304 84.9601 98.5432 85.1329C98.2593 85.6069 98.0702 86.1328 97.9868 86.6805C99.1991 86.4075 99.8616 85.926 99.9742 85.2359C99.989 85.1731 99.9989 85.1093 100.004 85.045H100.009ZM100.985 84.3214C101.075 84.3734 101.149 84.449 101.2 84.5401C101.251 84.6312 101.276 84.7344 101.273 84.8389C101.273 85.2895 100.949 85.7082 100.3 86.0951C99.5695 86.5021 98.7752 86.7784 97.952 86.9117C97.9209 87.1391 97.9018 87.368 97.8948 87.5975C97.869 88.1004 98.0002 88.5988 98.27 89.0221C98.391 89.1965 98.554 89.3368 98.7434 89.43C98.9329 89.5232 99.1427 89.5661 99.3531 89.5547C99.5881 89.553 99.8216 89.5166 100.046 89.4467C100.287 89.3733 100.512 89.2567 100.712 89.1025C100.728 89.1032 100.743 89.1077 100.757 89.1156C100.771 89.1234 100.783 89.1344 100.792 89.1477C100.816 89.1753 100.819 89.2004 100.792 89.2205C100.204 89.8116 99.4116 90.147 98.583 90.1552C98.3126 90.1736 98.0417 90.129 97.791 90.0249C97.5404 89.9208 97.3167 89.76 97.1371 89.5547C96.7959 89.1202 96.6197 88.5766 96.6403 88.0221C96.6413 87.7692 96.6654 87.5169 96.7123 87.2684C96.8233 86.7178 97.0454 86.1962 97.3647 85.7362C97.684 85.2763 98.0937 84.8879 98.5681 84.5952C99.0431 84.2992 99.5901 84.1427 100.148 84.143C100.429 84.1273 100.709 84.1898 100.958 84.3239" fill="#E3DCCA"></path><path d="M102.267 89.9069C102.154 89.7341 102.101 89.5282 102.116 89.3215C102.124 89.1015 102.148 88.8823 102.188 88.6658L103.547 81.2166C103.572 81.0764 103.586 80.9344 103.589 80.792C103.589 80.5207 103.495 80.385 103.301 80.385C103.078 80.4111 102.862 80.4802 102.665 80.5885H102.647C102.61 80.5885 102.585 80.5634 102.575 80.5156C102.565 80.4679 102.575 80.4377 102.62 80.4277L104.729 79.375H104.757C104.797 79.3758 104.836 79.3919 104.866 79.4202C104.898 79.4504 104.911 79.473 104.901 79.4931L103.271 88.6658C103.243 88.7904 103.228 88.9175 103.226 89.0452C103.226 89.2964 103.303 89.4095 103.457 89.4095C103.611 89.4095 103.904 89.221 104.28 88.8392C104.295 88.8228 104.317 88.813 104.339 88.8115C104.354 88.8127 104.369 88.818 104.382 88.8268C104.395 88.8356 104.405 88.8477 104.411 88.8618C104.42 88.8771 104.423 88.8948 104.42 88.9121C104.417 88.9295 104.409 88.9454 104.396 88.9572C104.136 89.2771 103.841 89.5661 103.517 89.819C103.298 89.9929 103.03 90.0899 102.752 90.0953C102.662 90.1033 102.572 90.0904 102.488 90.0578C102.404 90.0251 102.329 89.9735 102.267 89.9069Z" fill="#E3DCCA"></path><path d="M120.124 90.0301C119.763 89.9487 119.413 89.8186 119.086 89.6432C119.041 89.6158 119.007 89.5726 118.991 89.5217C118.975 89.4708 118.978 89.4157 118.999 89.3668L119.374 87.3569C119.374 87.3092 119.399 87.2866 119.454 87.2866C119.508 87.2866 119.533 87.3092 119.533 87.3569C119.811 89.0134 120.485 89.8417 121.555 89.8417C121.966 89.8527 122.365 89.7064 122.673 89.4322C122.995 89.1237 123.197 88.7096 123.245 88.2639C123.265 88.088 123.274 87.9674 123.274 87.8996C123.285 87.4572 123.142 87.025 122.87 86.6786C122.53 86.2785 122.142 85.9231 121.714 85.6209C121.347 85.3378 121.06 85.1042 120.855 84.9199C120.643 84.7297 120.465 84.5046 120.328 84.2541C120.18 83.9839 120.104 83.6789 120.109 83.3698C120.11 83.2279 120.125 83.0865 120.154 82.9477C120.213 82.6057 120.342 82.2797 120.532 81.9904C120.721 81.7011 120.969 81.4548 121.257 81.2669C121.858 80.8756 122.56 80.6728 123.274 80.684C123.845 80.6885 124.409 80.8072 124.934 81.0333C125.068 81.1011 125.123 81.184 125.093 81.2845L124.892 83.0959C124.892 83.1236 124.852 83.1386 124.805 83.1386C124.758 83.1386 124.728 83.1236 124.718 83.0959C124.636 82.536 124.42 82.0048 124.089 81.5483C123.958 81.3653 123.785 81.2167 123.586 81.1149C123.386 81.0131 123.165 80.961 122.942 80.9629C122.625 80.9499 122.313 81.0484 122.06 81.2418C121.832 81.4204 121.655 81.6571 121.548 81.9277C121.441 82.1769 121.385 82.445 121.381 82.7165C121.378 82.9953 121.448 83.27 121.583 83.513C121.713 83.7439 121.881 83.9511 122.08 84.126C122.271 84.2968 122.552 84.5229 122.917 84.8043C123.385 85.1414 123.814 85.5308 124.196 85.9651C124.492 86.3287 124.648 86.7882 124.636 87.2589C124.639 87.3911 124.629 87.5233 124.606 87.6534C124.488 88.3731 124.097 89.0178 123.515 89.4497C122.837 89.9408 122.016 90.1876 121.183 90.1507C120.829 90.1514 120.476 90.1144 120.129 90.0401" fill="#E3DCCA"></path><path d="M129.642 86.3137C129.642 85.359 129.242 84.8816 128.444 84.8816C128.112 84.882 127.783 84.9469 127.475 85.0726L126.73 89.3436C127.062 89.4923 127.421 89.5669 127.783 89.5622C128.036 89.5622 128.283 89.4918 128.498 89.3588C128.713 89.2258 128.888 89.0354 129.003 88.8085C129.346 88.1771 129.556 87.4808 129.619 86.7634C129.637 86.57 129.647 86.4217 129.647 86.3263L129.642 86.3137ZM130.419 84.6304C130.555 84.7854 130.658 84.9661 130.724 85.1619C130.789 85.3577 130.816 85.5648 130.802 85.771C130.801 85.9394 130.786 86.1074 130.76 86.2735C130.663 86.9255 130.434 87.5501 130.086 88.1075C129.763 88.6479 129.331 89.1129 128.817 89.4718C128.372 89.7925 127.84 89.9678 127.294 89.9742C127.1 89.9742 126.879 89.9742 126.628 89.9441L126.166 92.5595C126.141 92.6988 126.127 92.84 126.124 92.9816C126.118 93.0421 126.124 93.1032 126.143 93.1611C126.161 93.219 126.191 93.2725 126.231 93.3182C126.332 93.3959 126.459 93.4326 126.586 93.4212C126.623 93.4212 126.73 93.4212 126.901 93.3911C126.941 93.3911 126.966 93.3911 126.976 93.4564C126.986 93.5217 126.976 93.5418 126.931 93.5519L124.261 93.9815C124.231 93.9815 124.209 93.9664 124.196 93.9061C124.184 93.8458 124.196 93.8157 124.231 93.8056C124.388 93.7821 124.539 93.7302 124.678 93.6524C124.782 93.5804 124.858 93.475 124.894 93.3534C124.964 93.1283 125.017 92.8982 125.053 92.665L126.28 85.6856L125.575 86.1881C125.569 86.1935 125.562 86.1977 125.554 86.2003C125.546 86.2029 125.538 86.2039 125.53 86.2032C125.503 86.2032 125.478 86.1831 125.458 86.1454C125.453 86.1388 125.449 86.1311 125.447 86.123C125.445 86.1148 125.445 86.1064 125.446 86.0981C125.448 86.0898 125.451 86.0819 125.455 86.0749C125.46 86.0679 125.466 86.062 125.473 86.0575C125.664 85.8916 125.955 85.663 126.34 85.3716L126.526 84.3339C126.611 84.2432 126.709 84.1669 126.817 84.1078C127 83.9846 127.173 83.8477 127.336 83.6983C127.48 83.5753 127.581 83.4089 127.624 83.2235C127.624 83.1858 127.664 83.1707 127.719 83.1808C127.773 83.1908 127.793 83.2134 127.783 83.2536L127.535 84.6706C128.084 84.3973 128.685 84.2473 129.296 84.2309C129.497 84.2177 129.699 84.2458 129.889 84.3136C130.079 84.3814 130.253 84.4875 130.402 84.6254" fill="#E3DCCA"></path><path d="M134.111 88.6052C134.498 88.1843 134.813 87.7011 135.042 87.1756C135.265 86.7302 135.393 86.2423 135.418 85.7436C135.427 85.4909 135.347 85.2432 135.192 85.0451C135.113 84.9587 135.017 84.8913 134.909 84.8478C134.802 84.8043 134.686 84.7859 134.57 84.7939C134.237 84.8044 133.919 84.9375 133.676 85.1683C133.36 85.4517 133.106 85.7992 132.931 86.1883C132.716 86.6495 132.568 87.1394 132.491 87.643C132.454 87.8647 132.435 88.089 132.434 88.3138C132.434 88.9192 132.63 89.2207 133.025 89.2207C133.373 89.2207 133.732 89.0206 134.101 88.6203L134.111 88.6052ZM137.055 88.8414C137.07 88.8417 137.085 88.8466 137.098 88.8556C137.111 88.8645 137.121 88.877 137.127 88.8916C137.147 88.9268 137.147 88.9519 137.127 88.972C136.872 89.29 136.581 89.5768 136.26 89.8262C136.048 89.9988 135.786 90.0982 135.514 90.1101C135.422 90.1183 135.33 90.1049 135.243 90.0709C135.157 90.0369 135.08 89.9833 135.018 89.9142C134.9 89.7301 134.845 89.5122 134.861 89.2936C134.86 89.0878 134.879 88.8825 134.918 88.6806L135.119 87.5098C134.796 88.2424 134.332 88.9032 133.756 89.4544C133.231 89.9317 132.722 90.1704 132.23 90.1704C132.102 90.1783 131.974 90.1581 131.854 90.1112C131.735 90.0644 131.627 89.992 131.537 89.8991C131.354 89.6649 131.266 89.3698 131.289 89.0725C131.315 88.3082 131.53 87.5628 131.915 86.9043C132.311 86.1603 132.84 85.4967 133.475 84.9472C134.096 84.417 134.687 84.1533 135.244 84.1533C135.428 84.1529 135.611 84.1843 135.785 84.2462C135.956 84.3054 136.112 84.4034 136.24 84.5326C136.41 84.3937 136.553 84.2231 136.66 84.0301C136.667 84.0215 136.675 84.0143 136.685 84.0092C136.695 84.004 136.706 84.0009 136.717 84C136.747 84 136.777 84.0078 136.804 84.0226C136.834 84.0377 136.844 84.0502 136.834 84.0603L135.996 88.6755C135.97 88.7952 135.955 88.9172 135.952 89.0398C135.947 89.1354 135.967 89.2305 136.009 89.3162C136.023 89.3467 136.046 89.3724 136.074 89.3907C136.102 89.4089 136.134 89.4187 136.168 89.4192C136.352 89.4192 136.63 89.2283 137.008 88.8489C137.02 88.8396 137.035 88.8352 137.05 88.8363" fill="#E3DCCA"></path><path fill-rule="evenodd" clip-rule="evenodd" d="M69.8603 84.3418L71.4428 86.0427L69.8603 87.7461L68.2803 86.0427L69.8603 84.3418Z" fill="#E3DCCA"></path><path fill-rule="evenodd" clip-rule="evenodd" d="M112.349 84.3008L113.931 86.0017L112.349 87.7025L110.769 86.0017L112.349 84.3008Z" fill="#E3DCCA"></path><path d="M9.30087 56.9068C9.85873 57.0196 10.4004 57.2028 10.9132 57.452C10.9796 57.4819 11.0351 57.5319 11.0722 57.5952C11.1005 57.6907 11.1172 57.7895 11.1218 57.8891L11.3703 60.2181C11.3703 60.2558 11.3355 60.2809 11.2684 60.2935C11.2013 60.306 11.1566 60.2935 11.1442 60.2357C10.5281 58.1119 9.22634 57.05 7.23893 57.05C6.29269 57.0313 5.35951 57.2754 4.54101 57.756C3.75529 58.2346 3.12297 58.9325 2.72004 59.7659C2.26989 60.7152 2.04692 61.7583 2.06916 62.8109C2.05729 63.8701 2.30118 64.9162 2.77966 65.8584C3.21836 66.7356 3.8793 67.4795 4.69503 68.014C5.48121 68.5291 6.39908 68.8007 7.33581 68.7954C8.21171 68.8327 9.07401 68.5668 9.78034 68.0417C10.4147 67.5392 10.9206 66.7603 11.2982 65.7051C11.3098 65.6683 11.3471 65.6557 11.41 65.6675C11.4746 65.68 11.5069 65.7001 11.5069 65.7253L11.3156 67.8608C11.3036 67.9615 11.282 68.0608 11.251 68.1572C11.2128 68.2205 11.1565 68.2704 11.0895 68.3004C10.5069 68.5848 9.89321 68.799 9.26112 68.9386C8.62125 69.065 7.97037 69.1256 7.31842 69.1195C6.09149 69.1428 4.87657 68.8716 3.77337 68.3281C2.77255 67.8359 1.92887 67.0689 1.33878 66.1147C0.74644 65.1366 0.442224 64.0079 0.461836 62.8611C0.442021 61.7327 0.750416 60.6232 1.34872 59.6704C1.95337 58.7302 2.80618 57.98 3.81063 57.5047C4.91612 56.9778 6.12627 56.7139 7.34823 56.7334C8.00268 56.7245 8.65648 56.7783 9.30087 56.8942" fill="#E3DBC9"></path><path d="M18.7439 63.3777H22.9026L20.7139 58.7599L18.7539 63.3777H18.7439ZM28.0252 68.7567C28.0252 68.8321 27.9978 68.8723 27.9482 68.8723C27.6997 68.8723 27.3395 68.8597 26.8352 68.8321C26.3309 68.8044 25.9607 68.7944 25.7222 68.7944C25.4341 68.7944 25.0739 68.8069 24.649 68.8321C24.2242 68.8572 23.9311 68.8723 23.705 68.8723C23.6528 68.8723 23.628 68.8321 23.628 68.7567C23.628 68.6813 23.6528 68.6411 23.705 68.6411C24.0335 68.6592 24.3625 68.6175 24.6764 68.518C24.7663 68.4852 24.8433 68.424 24.8961 68.3435C24.9489 68.2629 24.9747 68.1673 24.9695 68.0708C24.938 67.7679 24.8476 67.4742 24.7037 67.2066L23.0815 63.7721H18.5725L17.4595 66.385C17.3066 66.7142 17.222 67.0716 17.2111 67.4352C17.2111 68.2375 17.8214 68.6378 19.042 68.6361C19.1041 68.6361 19.1364 68.6763 19.1364 68.7517C19.1364 68.827 19.1041 68.8672 19.042 68.8672C18.816 68.8672 18.488 68.8547 18.0483 68.827C17.5713 68.8019 17.1573 68.7894 16.8062 68.7894C16.4907 68.7894 16.1081 68.8019 15.656 68.827C15.2783 68.8547 14.9579 68.8672 14.6921 68.8672C14.63 68.8672 14.5977 68.827 14.5977 68.7517C14.5977 68.6763 14.63 68.6361 14.6921 68.6361C15.0026 68.6461 15.3108 68.5779 15.5889 68.4376C15.8785 68.2601 16.1214 68.0145 16.2969 67.7216C16.5879 67.2418 16.8372 66.7374 17.0422 66.2142L21.017 56.7902C21.0419 56.75 21.0916 56.7324 21.1686 56.7324C21.2456 56.7324 21.2878 56.75 21.3002 56.7902L25.7893 66.2518C26.0666 66.9297 26.4353 67.5655 26.8849 68.1412C27.0112 68.2958 27.1693 68.4209 27.3482 68.5076C27.5271 68.5944 27.7225 68.6408 27.9208 68.6436C27.9705 68.6436 27.9978 68.6838 27.9978 68.7592" fill="#E3DBC9"></path><path d="M33.4207 60.4003C33.6518 60.762 33.9455 61.0786 34.2877 61.3349C34.6289 61.5878 35.1067 61.8993 35.7212 62.2695C36.3621 62.6648 36.8656 62.9998 37.2316 63.2745C37.6037 63.5629 37.9203 63.918 38.1657 64.3221C38.4322 64.7742 38.5666 65.2934 38.5532 65.8195C38.5614 66.4122 38.401 66.9947 38.0911 67.4978C37.7621 68.0117 37.2938 68.4189 36.7422 68.6711C36.0849 68.9715 35.3691 69.1184 34.6479 69.1007C33.6985 69.1187 32.7614 68.8811 31.9326 68.4123C31.8766 68.3822 31.8307 68.3358 31.801 68.2791C31.7686 68.207 31.7492 68.1295 31.7438 68.0505L31.5352 65.3798C31.5352 65.3296 31.5501 65.2969 31.6196 65.2844C31.6892 65.2718 31.7314 65.2844 31.7438 65.3421C31.9645 66.2228 32.3694 67.0453 32.9313 67.754C33.1877 68.0795 33.5158 68.3398 33.8893 68.5143C34.2628 68.6888 34.6715 68.7726 35.0827 68.759C35.6403 68.776 36.1867 68.5986 36.6304 68.2565C37.0444 67.9215 37.2515 67.3805 37.2515 66.6335C37.2652 66.115 37.1343 65.6031 36.8739 65.1562C36.633 64.7542 36.3235 64.3986 35.9596 64.1061C35.4938 63.7476 35.0059 63.4195 34.4989 63.1237C33.8803 62.7293 33.4033 62.4001 33.063 62.1414C32.7147 61.8688 32.4206 61.5321 32.196 61.149C31.9531 60.718 31.8319 60.2279 31.8457 59.732C31.8243 59.1411 31.9992 58.56 32.3425 58.0814C32.6886 57.6278 33.152 57.2799 33.6816 57.0764C34.2396 56.8523 34.8351 56.7389 35.4355 56.7423C36.2016 56.7413 36.9607 56.8898 37.6713 57.1794C37.8601 57.2699 37.9545 57.3829 37.9545 57.5236L38.0663 59.8124C38.0663 59.8652 38.0315 59.8953 37.9644 59.9079C37.8974 59.9204 37.8527 59.9079 37.8402 59.8526C37.7076 59.158 37.4167 58.5042 36.9906 57.9432C36.7703 57.6476 36.4815 57.4112 36.1497 57.2548C35.8179 57.0984 35.4532 57.0268 35.0877 57.0463C34.81 57.0286 34.5319 57.072 34.2724 57.1735C34.013 57.275 33.7783 57.4322 33.5847 57.6342C33.2325 58.046 33.047 58.5773 33.0655 59.1215C33.0561 59.5746 33.1816 60.0202 33.4257 60.4003" fill="#E3DBC9"></path><path d="M43.6735 57.9497C43.2512 58.3768 42.9464 59.0736 42.7593 60.04C42.7469 60.0777 42.7046 60.0928 42.6351 60.0877C42.5655 60.0827 42.5332 60.0651 42.5332 60.04C42.5829 59.6832 42.6392 59.1104 42.7021 58.3215C42.7651 57.5326 42.7965 56.9347 42.7965 56.5277C42.7965 56.4649 42.8338 56.4322 42.9083 56.4322C42.9829 56.4322 43.0226 56.4649 43.0226 56.5277C43.0226 56.8091 43.363 56.9473 44.0412 56.9473C45.1243 56.9875 46.388 57.0067 47.8322 57.005C48.5758 57.005 49.3625 56.9925 50.1922 56.9674L51.4741 56.9473C51.813 56.9601 52.1521 56.928 52.4827 56.8518C52.5802 56.8309 52.6707 56.7847 52.7452 56.7178C52.8197 56.6508 52.8756 56.5654 52.9075 56.4699C52.92 56.4197 52.9572 56.3945 53.0218 56.3945C53.0864 56.3945 53.1162 56.4197 53.1162 56.4699C53.079 56.8392 53.0392 57.4095 53.0019 58.1783C52.9647 58.9471 52.9473 59.5677 52.9473 60.04C52.9473 60.0651 52.9125 60.0777 52.843 60.0777C52.7734 60.0777 52.7312 60.0651 52.7187 60.04C52.6691 59.0602 52.4463 58.3601 52.0505 57.9396C51.6546 57.5192 51.041 57.3099 50.2096 57.3116C49.847 57.3005 49.4842 57.3257 49.1265 57.3869C49.0311 57.4017 48.9403 57.4386 48.8615 57.4949C48.7826 57.5511 48.7177 57.6251 48.6719 57.711C48.5741 57.973 48.5326 58.2531 48.5501 58.5326V67.3259C48.5334 67.6169 48.5748 67.9082 48.6719 68.1826C48.7213 68.2778 48.7919 68.36 48.8781 68.4227C48.9644 68.4855 49.0638 68.5272 49.1687 68.5444C49.5571 68.622 49.9531 68.6541 50.3487 68.6399C50.3736 68.6399 50.386 68.6801 50.386 68.7555C50.386 68.8308 50.3736 68.871 50.3487 68.871C49.919 68.871 49.5811 68.871 49.3277 68.8509L47.8371 68.8308L46.4037 68.8509C46.1553 68.8635 45.8 68.871 45.3479 68.871C45.323 68.871 45.3106 68.8308 45.3106 68.7555C45.3106 68.6801 45.3106 68.6399 45.3479 68.6399C45.7402 68.6533 46.1328 68.6212 46.518 68.5444C46.6231 68.5241 46.7223 68.4802 46.8083 68.4158C46.8943 68.3514 46.9649 68.2683 47.0148 68.1726C47.117 67.9028 47.1619 67.6144 47.1465 67.3259V58.4924C47.1637 58.2227 47.1222 57.9526 47.0248 57.701C46.9772 57.6174 46.9117 57.5458 46.833 57.4914C46.7542 57.437 46.6644 57.4013 46.5702 57.3869C46.2058 57.3253 45.8364 57.3 45.4671 57.3116C44.6871 57.3116 44.0884 57.5226 43.666 57.9497" fill="#E3DBC9"></path><path d="M59.6423 67.2486C59.6284 67.5134 59.6638 67.7784 59.7466 68.0299C59.782 68.113 59.8362 68.1865 59.9048 68.2446C59.9734 68.3026 60.0545 68.3435 60.1416 68.3641C60.4481 68.4329 60.762 68.4616 61.0757 68.4495H62.8992C63.2389 68.4626 63.5779 68.4079 63.8967 68.2885C64.2156 68.1691 64.508 67.9873 64.7574 67.7536C65.2678 67.2407 65.6021 66.5759 65.7114 65.8567C65.7114 65.819 65.7461 65.8015 65.8157 65.809C65.8853 65.8165 65.9175 65.8366 65.9175 65.8743C65.8162 66.7745 65.7598 67.6793 65.7486 68.5852C65.7549 68.6625 65.7347 68.7396 65.6915 68.8038C65.6605 68.8301 65.6243 68.8495 65.5853 68.8608C65.5464 68.8721 65.5055 68.8749 65.4654 68.8691H56.7009C56.6736 68.8691 56.6611 68.8314 56.6611 68.756C56.6611 68.6807 56.6736 68.6405 56.7009 68.6405C57.0431 68.6543 57.3856 68.6221 57.7194 68.545C57.8155 68.5222 57.9048 68.4766 57.98 68.4119C58.0552 68.3473 58.114 68.2654 58.1517 68.1732C58.2417 67.8998 58.2805 67.6118 58.266 67.324V58.4929C58.2813 58.2076 58.2425 57.9219 58.1517 57.6513C58.1118 57.5605 58.0522 57.48 57.9774 57.4156C57.9026 57.3513 57.8144 57.3047 57.7194 57.2795C57.3866 57.1952 57.0436 57.1597 56.7009 57.1739C56.6736 57.1739 56.6611 57.1363 56.6611 57.0609C56.6611 56.9855 56.6736 56.9453 56.7009 56.9453L57.6424 56.9654C58.1716 56.9905 58.6038 57.0031 58.9442 57.0031C59.2845 57.0031 59.7565 56.9905 60.2832 56.9654L61.2098 56.9453C61.2347 56.9453 61.2471 56.9855 61.2471 57.0609C61.2471 57.1363 61.2471 57.1739 61.2098 57.1739C60.8696 57.1607 60.5292 57.1963 60.1987 57.2795C60.1012 57.305 60.0107 57.3526 59.9341 57.4188C59.8574 57.485 59.7967 57.5679 59.7565 57.6613C59.6667 57.9348 59.6279 58.2227 59.6423 58.5105V67.2486Z" fill="#E3DBC9"></path><path d="M77.5568 65.9509C77.6314 65.9509 77.6686 65.9735 77.6686 66.0187C77.555 66.8664 77.4985 67.7209 77.4997 68.5763C77.5033 68.6154 77.4992 68.6549 77.4877 68.6924C77.4761 68.7299 77.4574 68.7647 77.4326 68.7949C77.3666 68.8476 77.2827 68.872 77.1991 68.8627H69.2072C69.1823 68.8627 69.1699 68.8225 69.1699 68.7472C69.1699 68.6718 69.1699 68.6316 69.2072 68.6316C69.5494 68.6456 69.8919 68.6135 70.2257 68.5361C70.3222 68.5135 70.4119 68.468 70.4875 68.4033C70.5631 68.3387 70.6224 68.2567 70.6605 68.1643C70.7505 67.8909 70.7893 67.6029 70.7748 67.3151V58.4941C70.7896 58.2088 70.7508 57.9232 70.6605 57.6525C70.62 57.5617 70.56 57.4811 70.4847 57.4168C70.4095 57.3525 70.321 57.3059 70.2257 57.2806C69.893 57.1963 69.5499 57.1607 69.2072 57.1751C69.1823 57.1751 69.1699 57.1374 69.1699 57.0621C69.1699 56.9867 69.1699 56.9465 69.2072 56.9465H76.8687C76.8918 56.9436 76.9152 56.9461 76.9372 56.9538C76.9592 56.9615 76.9791 56.9742 76.9955 56.991C77.0118 57.0078 77.0241 57.0281 77.0314 57.0504C77.0387 57.0728 77.0409 57.0965 77.0376 57.1199L77.0749 59.5041C77.0749 59.5418 77.0401 59.5619 76.9705 59.5619C76.901 59.5619 76.8687 59.5418 76.8687 59.5041C76.8327 58.9086 76.5847 58.3463 76.1706 57.9213C75.7521 57.5407 75.2026 57.3413 74.6403 57.3661H73.6044C73.0131 57.3661 72.6231 57.4498 72.4343 57.6173C72.2455 57.7831 72.1511 58.1022 72.1511 58.572V62.4637H74.3273C74.955 62.4637 75.4112 62.3557 75.6961 62.1396C75.8452 62.012 75.9616 61.8499 76.0356 61.6671C76.1095 61.4843 76.1388 61.2861 76.1209 61.0894C76.1209 61.0643 76.1582 61.0517 76.2327 61.0517C76.3097 61.0517 76.347 61.0643 76.347 61.0894L76.3147 62.6848C76.3147 63.0516 76.3147 63.333 76.3346 63.5239L76.352 64.4761C76.352 64.5038 76.3147 64.5163 76.2402 64.5163C76.1656 64.5163 76.1259 64.5038 76.1259 64.4761C76.1259 63.9184 75.9818 63.5147 75.6936 63.2652C75.4055 63.0156 74.9334 62.8916 74.2776 62.8933H72.1461V67.2624C72.1312 67.5189 72.1701 67.7758 72.2604 68.0161C72.2986 68.0994 72.3534 68.1739 72.4214 68.2348C72.4893 68.2958 72.569 68.3419 72.6554 68.3703C72.9369 68.4522 73.2297 68.487 73.5224 68.4733H74.8614C75.1664 68.4835 75.4704 68.4323 75.7557 68.3228C76.0409 68.2132 76.3019 68.0475 76.5234 67.8352C76.9985 67.3404 77.3139 66.7113 77.4276 66.0313C77.4276 65.9936 77.4649 65.9785 77.5419 65.9836" fill="#E3DBC9"></path><path d="M95.6668 68.0031C96.4253 67.5651 97.0363 66.9069 97.4207 66.1138C97.8643 65.1842 98.0815 64.1608 98.0542 63.1291C98.0693 62.0919 97.8634 61.0637 97.4505 60.1142C97.0814 59.2617 96.4908 58.5263 95.7413 57.9862C94.9918 57.4601 94.0972 57.1866 93.185 57.2049C92.7688 57.1938 92.3526 57.2258 91.9429 57.3003C91.6912 57.3402 91.463 57.4726 91.3019 57.6722C91.1441 57.9253 91.0709 58.223 91.0932 58.5214V67.1062C91.0932 67.6664 91.2299 68.0609 91.4982 68.2895C91.7665 68.5181 92.3006 68.6312 93.0931 68.6312C93.9922 68.6497 94.8804 68.4297 95.6693 67.993L95.6668 68.0031ZM91.9801 68.8799L91.292 68.8422C91.0212 68.8297 90.7231 68.8221 90.3952 68.8221L89.0934 68.8422C88.845 68.8548 88.5344 68.8623 88.132 68.8623C88.1071 68.8623 88.0947 68.8221 88.0947 68.7468C88.0947 68.6714 88.0947 68.6312 88.132 68.6312C88.4742 68.645 88.8167 68.6129 89.1505 68.5357C89.2476 68.5116 89.338 68.4656 89.415 68.4013C89.492 68.3369 89.5536 68.2557 89.5952 68.1639C89.6907 67.8926 89.7321 67.6048 89.717 67.3172V58.4912C89.7321 58.2067 89.6933 57.9219 89.6027 57.6521C89.5628 57.5613 89.5032 57.4808 89.4284 57.4164C89.3536 57.3521 89.2654 57.3055 89.1704 57.2802C88.8376 57.196 88.4946 57.1605 88.1519 57.1747C88.1245 57.1747 88.1121 57.137 88.1121 57.0617C88.1121 56.9863 88.1121 56.9461 88.1519 56.9461L89.0934 56.9662C89.6474 56.9913 90.0871 57.0039 90.3952 57.0039C90.8746 57.0039 91.3442 56.9863 91.8112 56.9461C92.4141 56.921 92.8165 56.9084 93.0186 56.9084C94.2203 56.8797 95.4119 57.1379 96.4965 57.6621C97.4514 58.1239 98.2614 58.8439 98.8367 59.7424C99.3941 60.6282 99.6826 61.6597 99.6665 62.7095C99.6877 63.8577 99.3908 64.9891 98.8094 65.9756C98.2503 66.9096 97.4463 67.6688 96.4866 68.1689C95.4996 68.6876 94.4017 68.9534 93.2893 68.9427C92.9117 68.9427 92.477 68.9226 91.9876 68.8849" fill="#E3DBC9"></path><path d="M106.871 63.3776H111.022L108.831 58.7598L106.871 63.3776ZM116.152 68.7566C116.152 68.8319 116.127 68.8721 116.078 68.8721C115.829 68.8721 115.466 68.8596 114.962 68.8319C114.458 68.8043 114.09 68.7943 113.852 68.7943C113.561 68.7943 113.203 68.8068 112.776 68.8319C112.349 68.8571 112.058 68.8721 111.832 68.8721C111.782 68.8721 111.757 68.8319 111.757 68.7566C111.757 68.6812 111.782 68.641 111.832 68.641C112.16 68.6594 112.489 68.6177 112.803 68.5179C112.893 68.4854 112.971 68.4243 113.024 68.3437C113.076 68.2631 113.102 68.1673 113.096 68.0707C113.065 67.7681 112.975 67.4745 112.833 67.2064L111.208 63.772H106.692L105.579 66.3849C105.427 66.7144 105.342 67.0716 105.331 67.4351C105.331 68.2373 105.94 68.6376 107.159 68.636C107.224 68.636 107.253 68.6762 107.253 68.7515C107.253 68.8269 107.224 68.8671 107.159 68.8671C106.933 68.8671 106.605 68.8546 106.178 68.8269C105.701 68.8018 105.287 68.7892 104.936 68.7892C104.62 68.7892 104.237 68.8018 103.785 68.8269C103.408 68.8546 103.087 68.8671 102.824 68.8671C102.759 68.8671 102.729 68.8269 102.729 68.7515C102.729 68.6762 102.759 68.636 102.824 68.636C103.134 68.6457 103.443 68.5775 103.721 68.4375C104.009 68.2591 104.251 68.0136 104.426 67.7215C104.718 67.2422 104.968 66.7378 105.172 66.214L109.146 56.7901C109.165 56.7682 109.188 56.7514 109.215 56.7413C109.241 56.7312 109.27 56.7281 109.298 56.7323C109.372 56.7323 109.417 56.7499 109.43 56.7901L113.921 66.2517C114.199 66.9289 114.567 67.5645 115.014 68.141C115.141 68.2956 115.3 68.4206 115.479 68.5073C115.658 68.5941 115.854 68.6405 116.053 68.6435C116.102 68.6435 116.127 68.6837 116.127 68.7591" fill="#E3DBC9"></path><path d="M123.237 62.6138C124.181 62.6138 124.855 62.4003 125.257 61.9732C125.66 61.5486 125.861 60.8828 125.861 59.9809C125.861 58.9759 125.653 58.2599 125.237 57.8328C124.822 57.4057 124.224 57.1929 123.446 57.1946C122.949 57.1946 122.611 57.2876 122.418 57.471C122.224 57.6544 122.124 58.0086 122.124 58.5312V62.551C122.494 62.59 122.866 62.6093 123.237 62.6088V62.6138ZM131.368 68.7516C131.368 68.827 131.351 68.8672 131.314 68.8672H128.733C128.431 68.8672 127.862 68.3488 127.026 67.312C126.19 66.2752 125.168 64.8281 123.96 62.9706C123.649 63.031 123.333 63.063 123.016 63.0661C122.954 63.0661 122.659 63.046 122.129 63.0083V67.322C122.114 67.6124 122.152 67.9031 122.244 68.1788C122.283 68.2694 122.343 68.3494 122.419 68.4126C122.494 68.4758 122.583 68.5205 122.678 68.5431C123.013 68.618 123.355 68.6492 123.697 68.636C123.734 68.636 123.754 68.6762 123.754 68.7516C123.754 68.827 123.734 68.8672 123.697 68.8672C123.295 68.8672 122.986 68.8672 122.773 68.8471L121.431 68.827L120.13 68.8471C119.881 68.8596 119.571 68.8672 119.168 68.8672C119.143 68.8672 119.131 68.827 119.131 68.7516C119.131 68.6762 119.143 68.636 119.168 68.636C119.51 68.6491 119.852 68.6178 120.187 68.5431C120.284 68.5185 120.374 68.4721 120.451 68.4073C120.528 68.3425 120.59 68.2609 120.631 68.1687C120.727 67.8974 120.768 67.6096 120.753 67.322V58.491C120.768 58.2067 120.73 57.9222 120.641 57.6519C120.601 57.5612 120.54 57.4809 120.465 57.4166C120.39 57.3523 120.302 57.3057 120.207 57.28C119.882 57.197 119.547 57.1614 119.213 57.1745C119.176 57.1745 119.158 57.1368 119.158 57.0615C119.158 56.9861 119.176 56.9459 119.213 56.9459L120.137 56.966C120.666 56.9911 121.101 57.0037 121.439 57.0037C121.705 57.0037 121.955 57.0037 122.184 56.9861L122.808 56.9459C123.272 56.9082 123.707 56.8906 124.109 56.8906C125.116 56.8906 125.899 57.1159 126.457 57.5665C126.729 57.7815 126.947 58.0587 127.093 58.3753C127.239 58.6918 127.309 59.0389 127.297 59.3879C127.301 60.0599 127.093 60.7158 126.703 61.2597C126.296 61.8259 125.754 62.2788 125.128 62.5762C126.185 64.1137 127.068 65.3155 127.779 66.1814C128.329 66.8898 128.97 67.5216 129.684 68.0607C130.157 68.4178 130.726 68.6203 131.316 68.641C131.354 68.641 131.371 68.6812 131.371 68.7566" fill="#E3DBC9"></path><path d="M137.499 68.2617C136.516 67.7468 135.696 66.9634 135.131 66.0005C134.583 65.0475 134.3 63.9624 134.312 62.8601C134.29 61.7143 134.616 60.5893 135.246 59.6367C135.884 58.6953 136.769 57.9524 137.802 57.4911C138.947 56.975 140.19 56.7178 141.444 56.7374C142.074 56.7338 142.702 56.7944 143.32 56.9183C143.826 57.0101 144.314 57.1876 144.763 57.4434C144.831 57.4706 144.892 57.5126 144.942 57.5665C144.973 57.6621 144.989 57.7622 144.989 57.8629L145.237 60.1718C145.237 60.2086 145.203 60.2338 145.133 60.2472C145.064 60.2597 145.024 60.2472 145.011 60.2095C144.765 59.338 144.281 58.5544 143.615 57.9483C142.963 57.3621 142.095 57.0698 141.012 57.0715C140.106 57.0566 139.212 57.2837 138.421 57.7298C137.64 58.1806 137.004 58.8497 136.59 59.6568C136.129 60.5579 135.899 61.5618 135.921 62.5762C135.912 63.6396 136.137 64.6918 136.58 65.6563C137.02 66.6295 137.735 67.4489 138.635 68.011C139.536 68.5731 140.58 68.8527 141.638 68.8144C142.504 68.8144 143.11 68.6469 143.456 68.3119C143.804 67.9728 143.975 67.3673 143.975 66.4879C143.996 66.0239 143.955 65.5592 143.854 65.1061C143.817 64.9805 143.748 64.8665 143.656 64.7747C143.563 64.6829 143.449 64.6163 143.325 64.581C142.852 64.4709 142.366 64.4261 141.881 64.4479C141.807 64.4479 141.769 64.3976 141.769 64.2946C141.768 64.2575 141.778 64.2209 141.797 64.1891C141.803 64.1762 141.813 64.1651 141.824 64.1567C141.836 64.1484 141.85 64.1431 141.864 64.1414C142.87 64.2067 143.68 64.2368 144.296 64.2368C144.912 64.2368 145.516 64.2193 146.184 64.1791C146.234 64.1791 146.261 64.2243 146.268 64.3147C146.276 64.4052 146.246 64.4479 146.184 64.4479C145.965 64.4165 145.742 64.4598 145.55 64.571C145.404 64.7294 145.32 64.9369 145.314 65.1539C145.269 65.6608 145.25 66.1699 145.26 66.6789C145.249 67.087 145.271 67.4953 145.324 67.8999C145.357 68.0507 145.379 68.2034 145.391 68.3571C145.398 68.4111 145.385 68.4657 145.354 68.5104C145.304 68.5494 145.245 68.5761 145.183 68.5883C143.861 68.9005 142.51 69.0723 141.153 69.1008C139.889 69.1309 138.638 68.8426 137.511 68.2617" fill="#E3DBC9"></path><path d="M153.198 63.3785H157.346L155.158 58.7608L153.198 63.3785ZM162.479 68.7575C162.479 68.8329 162.454 68.8731 162.402 68.8731C162.153 68.8731 161.793 68.8605 161.289 68.8329C160.785 68.8053 160.414 68.7952 160.178 68.7952C159.888 68.7952 159.53 68.8078 159.103 68.8329C158.675 68.858 158.385 68.8731 158.159 68.8731C158.109 68.8731 158.082 68.8329 158.082 68.7575C158.082 68.6822 158.109 68.642 158.159 68.642C158.487 68.6601 158.816 68.6184 159.13 68.5188C159.22 68.4861 159.297 68.4248 159.35 68.3443C159.403 68.2637 159.428 68.1681 159.423 68.0716C159.391 67.7704 159.301 67.4785 159.157 67.2124L157.535 63.778H153.026L151.913 66.3909C151.76 66.72 151.675 67.0774 151.665 67.441C151.665 68.2433 152.274 68.6436 153.493 68.642C153.558 68.642 153.588 68.6822 153.588 68.7575C153.588 68.8329 153.558 68.8731 153.493 68.8731C153.267 68.8731 152.939 68.8605 152.499 68.8329C152.022 68.8078 151.608 68.7952 151.257 68.7952C150.942 68.7952 150.559 68.8078 150.107 68.8329C149.73 68.8605 149.409 68.8731 149.143 68.8731C149.081 68.8731 149.049 68.8329 149.049 68.7575C149.049 68.6822 149.081 68.642 149.143 68.642C149.454 68.6519 149.762 68.5837 150.04 68.4435C150.33 68.266 150.573 68.0203 150.748 67.7274C151.039 67.2477 151.288 66.7433 151.493 66.22L155.468 56.7961C155.493 56.7559 155.543 56.7383 155.62 56.7383C155.697 56.7383 155.739 56.7559 155.751 56.7961L160.283 66.2577C160.56 66.9356 160.929 67.5714 161.378 68.147C161.505 68.3016 161.663 68.4265 161.842 68.5133C162.021 68.6 162.216 68.6465 162.414 68.6495C162.466 68.6495 162.491 68.6897 162.491 68.7651" fill="#E3DBC9"></path><path d="M178.08 57.0609C178.08 57.1363 178.063 57.1764 178.023 57.1764C177.81 57.1585 177.596 57.1915 177.398 57.2727C177.2 57.3538 177.023 57.481 176.883 57.6438C176.636 57.9553 176.513 58.441 176.515 59.1009V69.1002C176.515 69.1379 176.483 69.163 176.421 69.1756C176.359 69.1882 176.314 69.1756 176.289 69.1555L167.487 58.5105L167.43 58.4352V66.726C167.43 67.3868 167.549 67.8717 167.788 68.1757C167.925 68.335 168.097 68.4597 168.29 68.5395C168.484 68.6194 168.693 68.6522 168.901 68.6354C168.941 68.6354 168.958 68.6731 168.958 68.7485C168.958 68.8239 168.941 68.8641 168.901 68.8641C168.6 68.8641 168.362 68.8641 168.185 68.844L167.221 68.8239L166.228 68.844C166.039 68.8565 165.768 68.8641 165.418 68.8641C165.391 68.8641 165.378 68.8239 165.378 68.7485C165.378 68.6731 165.391 68.6354 165.418 68.6354C165.957 68.6354 166.352 68.4822 166.595 68.1757C166.839 67.8692 166.963 67.3868 166.963 66.726V57.9327C166.45 57.4302 165.928 57.179 165.398 57.179C165.361 57.179 165.341 57.1388 165.341 57.0634C165.341 56.988 165.361 56.9478 165.398 56.9478L166.096 56.9679C166.248 56.9805 166.461 56.9855 166.737 56.9855L167.624 56.9679C167.755 56.9534 167.887 56.9466 168.019 56.9478C168.058 56.944 168.097 56.9481 168.135 56.9597C168.172 56.9713 168.207 56.9904 168.237 57.0157C168.318 57.1081 168.39 57.2073 168.454 57.3121C168.605 57.5407 168.757 57.7493 168.906 57.9402L176.038 66.6783V59.1009C176.038 58.441 175.925 57.9553 175.698 57.6438C175.472 57.3297 175.102 57.1764 174.585 57.1764C174.56 57.1764 174.548 57.1363 174.548 57.0609C174.548 56.9855 174.548 56.9453 174.585 56.9453L175.33 56.9654C175.73 56.9905 176.053 57.0031 176.292 57.0031C176.53 57.0031 176.85 56.9905 177.253 56.9654L178.026 56.9453C178.065 56.9453 178.083 56.983 178.083 57.0609" fill="#E3DBC9"></path><path fill-rule="evenodd" clip-rule="evenodd" d="M89.2702 0.716031C93.5419 0.716031 97.7177 1.99708 101.27 4.39718C104.821 6.79729 107.59 10.2086 109.224 14.1999C110.859 18.1911 111.287 22.5829 110.453 26.82C109.62 31.0571 107.563 34.949 104.542 38.0038C101.522 41.0586 97.6735 43.1389 93.4838 43.9817C89.2941 44.8245 84.9515 44.3919 81.0049 42.7387C77.0583 41.0855 73.6851 38.2858 71.3119 34.6938C68.9386 31.1018 67.6719 26.8788 67.6719 22.5587C67.6758 16.7669 69.9526 11.2134 74.0022 7.11801C78.0519 3.02258 83.5432 0.720024 89.2702 0.716031ZM89.2702 0C84.8584 0 80.5457 1.32304 76.8775 3.80183C73.2092 6.28061 70.3502 9.8038 68.6618 13.9259C66.9735 18.0479 66.5318 22.5837 67.3925 26.9597C68.2532 31.3356 70.3776 35.3552 73.4972 38.5101C76.6168 41.665 80.5914 43.8135 84.9184 44.6839C89.2454 45.5544 93.7305 45.1076 97.8064 43.4002C101.882 41.6928 105.366 38.8014 107.817 35.0916C110.268 31.3819 111.576 27.0204 111.576 22.5587C111.574 16.5766 109.223 10.8402 105.04 6.61023C100.858 2.38023 95.1854 0.00266316 89.2702 0Z" fill="#C0A479"></path><path fill-rule="evenodd" clip-rule="evenodd" d="M81.2827 15.5694C81.1411 15.9965 80.9622 16.1272 80.5523 16.1272C80.1424 16.1272 79.7201 15.9312 79.8344 15.8282C80.2763 15.6301 80.7354 15.4737 81.2057 15.3609C81.31 15.3483 81.3349 15.4388 81.2827 15.5694ZM85.1259 6.22587C85.0907 6.37128 85.1139 6.52488 85.1905 6.65298C85.8066 7.52227 86.1146 8.62269 86.1146 9.9442C86.1146 11.0848 85.9482 11.228 85.6774 10.3336C85.3445 9.2332 84.8328 8.35135 84.5495 8.35135C84.2167 8.35135 84.1545 8.60259 84.3707 9.14276C84.7309 9.99697 85.2302 12.0194 85.116 12.135C85.0663 12.1878 84.8228 11.8109 84.5794 11.2532C84.3001 10.609 83.9192 10.0151 83.4515 9.49449C82.6441 8.6252 82.3609 8.43175 82.0156 8.54732C81.5684 8.69052 81.7349 9.13019 82.5124 9.89647C83.2304 10.5949 83.8838 11.6551 83.7422 11.8787C83.4828 11.9683 83.208 12.0033 82.9348 11.9817C82.4106 11.9817 82.1423 12.0471 82.0255 12.1903C81.7175 12.5521 82.1671 12.8108 83.1807 12.8636C84.1396 12.9289 84.2291 13.0194 83.6776 13.4339C82.7932 14.1072 81.0889 14.0293 79.5114 13.2379C78.8705 12.9289 78.6668 12.8636 78.5376 12.9867C78.309 13.2204 78.8208 13.7002 79.7797 14.1273C80.076 14.2407 80.3559 14.3936 80.612 14.5821C80.1404 14.8706 79.648 15.1226 79.1388 15.3358C77.3824 16.1649 77.1911 16.3407 77.3576 16.9161C77.4718 17.3181 77.5364 17.3583 78.5624 17.6296C80.1747 18.0567 80.3561 18.3833 80.3561 21.0113C80.3561 23.3578 80.2145 23.5387 78.4333 23.5789C77.9091 23.5789 77.3948 23.604 77.3178 23.604C76.9973 23.6417 77.1638 24.2774 77.9091 25.9883C78.3165 26.933 78.7016 27.8399 78.7413 27.9982C78.7811 28.1565 79.1388 28.4404 79.735 28.7519L80.6318 29.2041L80.5424 28.7017C80.4281 28.0409 80.376 27.948 79.8617 27.6012C79.5845 27.3922 79.3535 27.1269 79.1835 26.8224C78.9152 26.3049 78.7214 24.9833 78.9028 24.8653C79.0841 24.7472 79.9785 25.1391 80.5027 25.619C81.2206 26.2672 81.8218 26.5134 82.5149 26.4104C82.9646 26.3451 83.3472 26.4229 84.4502 26.8249C85.7693 27.2922 85.8737 27.3048 87.6027 27.3274C90.3826 27.3274 90.1764 27.2897 90.5367 27.9882C90.9276 28.7843 91.4875 29.4835 92.1763 30.0357C93.0483 30.6965 93.7265 30.905 94.9711 30.905C95.3867 30.8767 95.8042 30.9029 96.2132 30.9829C96.3027 31.0332 96.6231 31.7065 96.9585 32.4602C97.4142 33.4937 97.7534 34.5758 97.9696 35.6861C98.0218 35.9373 98.2528 36.1383 98.9435 36.5026L99.8428 36.9825V36.5931C99.8444 36.3069 99.7818 36.0241 99.6595 35.766C99.5373 35.5079 99.3587 35.2813 99.1372 35.1032C98.3423 34.3369 98.1435 33.6913 98.1882 31.8748L98.2131 30.3096L97.4827 29.9202C96.0244 29.1665 94.5885 27.4078 94.5885 26.3702C94.5885 26.0184 94.6382 25.9682 95.0854 25.8903C95.6493 25.7848 95.8803 25.6165 95.8803 25.2924C95.8803 24.9683 95.4953 24.7899 94.8543 24.7899C94.5177 24.7943 94.1892 24.6856 93.9202 24.4809C93.2793 23.9784 91.6844 23.2624 90.5615 22.9734C89.74 22.7861 88.9036 22.6734 88.0623 22.6368C86.3084 22.5589 85.9234 22.3855 84.8328 21.172C83.96 20.205 83.3596 19.019 83.0938 17.7376C82.6466 15.9237 82.6317 15.6398 83.0043 15.2906C83.1717 15.1414 83.2846 14.9396 83.3248 14.7177C83.3248 14.5117 83.5186 14.3685 84.0949 14.0972C85.7321 13.3585 86.9121 11.3888 86.9121 9.36635C86.9121 7.97952 86.0799 6.00981 85.4911 6.00981C85.4218 6.01084 85.3541 6.03075 85.2951 6.06745C85.236 6.10415 85.1879 6.15628 85.1557 6.21834L85.1259 6.22587ZM89.3069 1.91211C93.3414 1.91956 97.2832 3.13617 100.634 5.40823C103.985 7.68029 106.595 10.9059 108.134 14.6774C109.674 18.4489 110.073 22.5972 109.282 26.5982C108.491 30.5991 106.545 34.2731 103.69 37.1561C100.835 40.0391 97.1993 42.0016 93.242 42.7958C89.2847 43.59 85.1834 43.1801 81.4563 41.6181C77.7292 40.056 74.5436 37.4117 72.3018 34.0195C70.0601 30.6272 68.8628 26.639 68.8613 22.5589C68.864 17.0863 71.0146 11.8385 74.8408 7.96857C78.667 4.09861 83.8558 1.92297 89.2672 1.91965" fill="#C0A479"></path></svg> 